<svg xmlns="http://www.w3.org/2000/svg" width="100" height="100" viewBox="0 0 100 100">
  <metadata><?xpacket begin="﻿" id="W5M0MpCehiHzreSzNTczkc9d"?>
<x:xmpmeta xmlns:x="adobe:ns:meta/" x:xmptk="Adobe XMP Core 5.6-c142 79.160924, 2017/07/13-01:06:39        ">
   <rdf:RDF xmlns:rdf="http://www.w3.org/1999/02/22-rdf-syntax-ns#">
      <rdf:Description rdf:about=""/>
   </rdf:RDF>
</x:xmpmeta>
                                                                                                    
                                                                                                    
                                                                                                    
                                                                                                    
                                                                                                    
                                                                                                    
                                                                                                    
                                                                                                    
                                                                                                    
                                                                                                    
                                                                                                    
                                                                                                    
                                                                                                    
                                                                                                    
                                                                                                    
                                                                                                    
                                                                                                    
                                                                                                    
                                                                                                    
                                                                                                    
                           
<?xpacket end="w"?></metadata>
<defs>
    <style>
      .cls-1 {
        fill: #fff;
        fill-rule: evenodd;
      }
    </style>
  </defs>
  <path class="cls-1" d="M1454,1998h-88a6,6,0,0,1-6-6v-16a6,6,0,0,1,6-6h88a6,6,0,0,1,6,6v16A6,6,0,0,1,1454,1998Zm-88-24a2.006,2.006,0,0,0-2,2v16a2.006,2.006,0,0,0,2,2h88a2.006,2.006,0,0,0,2-2v-16a2.006,2.006,0,0,0-2-2h-88Zm80,96h-72a14.015,14.015,0,0,1-14-14v-48a2,2,0,0,1,4,0v48a10.016,10.016,0,0,0,10,10h72a10.016,10.016,0,0,0,10-10v-48a2,2,0,0,1,4,0v48A14.015,14.015,0,0,1,1446,2070Zm-48-20h-16a10.016,10.016,0,0,1-10-10v-16a10.016,10.016,0,0,1,10-10h16a10.016,10.016,0,0,1,10,10v16A10.016,10.016,0,0,1,1398,2050Zm-16-32a6,6,0,0,0-6,6v16a6,6,0,0,0,6,6h16a6,6,0,0,0,6-6v-16a6,6,0,0,0-6-6h-16Zm62,8h-24a6,6,0,0,1,0-12h24A6,6,0,0,1,1444,2026Zm4,8h-32a2,2,0,0,1,0-4h32A2,2,0,0,1,1448,2034Zm0,8h-32a2,2,0,0,1,0-4h32A2,2,0,0,1,1448,2042Zm0,8h-32a2,2,0,0,1,0-4h32A2,2,0,0,1,1448,2050Zm-42-60a6,6,0,1,1,6-6A6,6,0,0,1,1406,1990Zm0-8a2,2,0,1,0,2,2A2.006,2.006,0,0,0,1406,1982Zm-16,8a6,6,0,1,1,6-6A6,6,0,0,1,1390,1990Zm0-8a2,2,0,1,0,2,2A2.006,2.006,0,0,0,1390,1982Zm-16,8a6,6,0,1,1,6-6A6,6,0,0,1,1374,1990Zm0-8a2,2,0,1,0,2,2A2.006,2.006,0,0,0,1374,1982Z" transform="translate(-1360 -1970)"/>
</svg>
