<svg xmlns="http://www.w3.org/2000/svg" width="100" height="96" viewBox="0 0 100 96">
  <metadata><?xpacket begin="﻿" id="W5M0MpCehiHzreSzNTczkc9d"?>
<x:xmpmeta xmlns:x="adobe:ns:meta/" x:xmptk="Adobe XMP Core 5.6-c142 79.160924, 2017/07/13-01:06:39        ">
   <rdf:RDF xmlns:rdf="http://www.w3.org/1999/02/22-rdf-syntax-ns#">
      <rdf:Description rdf:about=""/>
   </rdf:RDF>
</x:xmpmeta>
                                                                                                    
                                                                                                    
                                                                                                    
                                                                                                    
                                                                                                    
                                                                                                    
                                                                                                    
                                                                                                    
                                                                                                    
                                                                                                    
                                                                                                    
                                                                                                    
                                                                                                    
                                                                                                    
                                                                                                    
                                                                                                    
                                                                                                    
                                                                                                    
                                                                                                    
                                                                                                    
                           
<?xpacket end="w"?></metadata>
<defs>
    <style>
      .cls-1 {
        fill: #f15e3f;
        fill-rule: evenodd;
      }
    </style>
  </defs>
  <path class="cls-1" d="M1386,2458h-16a10.016,10.016,0,0,1-10-10v-40a10.016,10.016,0,0,1,10-10h16a10.016,10.016,0,0,1,10,10v40A10.016,10.016,0,0,1,1386,2458Zm-16-56a6,6,0,0,0-6,6v40a6,6,0,0,0,6,6h16a6,6,0,0,0,6-6v-40a6,6,0,0,0-6-6h-16Zm18,32.87a1,1,0,0,1-1-1V2410a3.009,3.009,0,0,0-3-3h-12a3.009,3.009,0,0,0-3,3,1,1,0,0,1-2,0,5,5,0,0,1,5-5h12a5,5,0,0,1,5,5v23.87A1,1,0,0,1,1388,2434.87Zm-20,4.13a1,1,0,0,1-1-1v-20a1,1,0,0,1,2,0v20A1,1,0,0,1,1368,2439Zm10,12a5,5,0,1,1,5-5A5,5,0,0,1,1378,2451Zm0-8a3,3,0,1,0,3,3A3.009,3.009,0,0,0,1378,2443Zm36-19.17a3.83,3.83,0,1,1,3.83-3.83A3.837,3.837,0,0,1,1414,2423.83Zm0-5.66a1.83,1.83,0,1,0,1.83,1.83A1.831,1.831,0,0,0,1414,2418.17Zm34,11.83h-45.88a2,2,0,0,1,0-4H1448a8.011,8.011,0,0,0,8-8v-44a8.011,8.011,0,0,0-8-8h-68a8.011,8.011,0,0,0-8,8v26a2,2,0,0,1-4,0v-26a12.01,12.01,0,0,1,12-12h68a12.01,12.01,0,0,1,12,12v44A12.01,12.01,0,0,1,1448,2430Zm-2-16h-42.25a2,2,0,0,1,0-4H1446a2.006,2.006,0,0,0,2-2v-32a2.006,2.006,0,0,0-2-2h-64a2.006,2.006,0,0,0-2,2v16.12a2,2,0,0,1-4,0V2376a6,6,0,0,1,6-6h64a6,6,0,0,1,6,6v32A6,6,0,0,1,1446,2414Zm-36,28h-5.88a2,2,0,0,1,0-4H1408v-8a2,2,0,0,1,4,0v10A2,2,0,0,1,1410,2442Zm24,8h-28a2,2,0,0,1,0-4h26v-4h-14.13a2,2,0,0,1-2-2v-10a2,2,0,0,1,4,0v8H1434a1.993,1.993,0,0,1,2,2v8A1.993,1.993,0,0,1,1434,2450Z" transform="translate(-1360 -2362)"/>
</svg>
