<svg xmlns="http://www.w3.org/2000/svg" width="99.94" height="98.03" viewBox="0 0 99.94 98.03">
  <metadata><?xpacket begin="﻿" id="W5M0MpCehiHzreSzNTczkc9d"?>
<x:xmpmeta xmlns:x="adobe:ns:meta/" x:xmptk="Adobe XMP Core 5.6-c142 79.160924, 2017/07/13-01:06:39        ">
   <rdf:RDF xmlns:rdf="http://www.w3.org/1999/02/22-rdf-syntax-ns#">
      <rdf:Description rdf:about=""/>
   </rdf:RDF>
</x:xmpmeta>
                                                                                                    
                                                                                                    
                                                                                                    
                                                                                                    
                                                                                                    
                                                                                                    
                                                                                                    
                                                                                                    
                                                                                                    
                                                                                                    
                                                                                                    
                                                                                                    
                                                                                                    
                                                                                                    
                                                                                                    
                                                                                                    
                                                                                                    
                                                                                                    
                                                                                                    
                                                                                                    
                           
<?xpacket end="w"?></metadata>
<defs>
    <style>
      .cls-1 {
        fill: #f15a39;
        fill-rule: evenodd;
      }
    </style>
  </defs>
  <path class="cls-1" d="M1156.26,2155.4a1.9,1.9,0,0,0-.8-0.79c-0.24-.12-24.07-12.13-44.68,8.09-14.54,14.26-25.69,29.71-30.6,42.41a1.82,1.82,0,0,0,.06,1.48,1.9,1.9,0,0,0,1.13.98,33.283,33.283,0,0,1,12.78,7.95,32.586,32.586,0,0,1,8.07,12.4,1.866,1.866,0,0,0,1,1.1,1.956,1.956,0,0,0,.82.18,1.989,1.989,0,0,0,.68-0.12c13.13-4.88,28.91-15.76,43.29-29.86C1168.63,2178.99,1156.38,2155.63,1156.26,2155.4Zm-51.11,69.45a36.928,36.928,0,0,0-8.28-11.99,37.493,37.493,0,0,0-12.38-8.18c5.05-11.88,15.52-26.08,29.01-39.31,17.15-16.82,36.13-9.29,39.62-7.68,1.64,3.43,9.32,22.04-7.83,38.86C1131.94,2209.64,1117.43,2219.86,1105.15,2224.85Zm-13.77-6.61c-5.6-5.49-13.15-6.69-17.18-2.74-9.61,9.43-8.94,25.84-8.9,26.53a1.9,1.9,0,0,0,1.84,1.8c0.09,0,.45.01,1.03,0.01,3.89,0,17.7-.6,26-8.74,2.03-1.99,2.78-4.91,2.13-8.22A17.118,17.118,0,0,0,1091.38,2218.24Zm0.07,14.19c-6.63,6.5-17.9,7.49-22.31,7.62,0.11-4.31,1.08-15.31,7.78-21.88a4.658,4.658,0,0,1,3.37-1.2c2.58,0,5.78,1.41,8.37,3.94a13.266,13.266,0,0,1,3.86,6.69A5.174,5.174,0,0,1,1091.45,2232.43Zm33.07-63.31a11.592,11.592,0,0,0,0,16.62,12.147,12.147,0,0,0,16.94,0,11.609,11.609,0,0,0,0-16.62A12.16,12.16,0,0,0,1124.52,2169.12Zm11.5,11.29a4.357,4.357,0,0,1-6.06,0,4.159,4.159,0,0,1,0-5.95,4.347,4.347,0,0,1,6.06,0A4.159,4.159,0,0,1,1136.02,2180.41Zm-65.62,14.93a14.69,14.69,0,0,1,6.14,1.99,1.954,1.954,0,0,0,1.12.35,1.81,1.81,0,0,0,.4-0.04,1.949,1.949,0,0,0,1.26-.89c0.03-.06,3.88-6.44,5.01-8.17a63.3,63.3,0,0,1,6.79-8.73,1.876,1.876,0,0,0,.37-2.05,1.937,1.937,0,0,0-1.77-1.14h-0.01a43.2,43.2,0,0,0-13.84,2.65c-8.99,3.57-15.29,13.25-15.56,13.66a1.852,1.852,0,0,0,.07,2.11,1.925,1.925,0,0,0,2.02.73A26.359,26.359,0,0,1,1070.4,2195.34Zm6.91-12.53a34.723,34.723,0,0,1,7.93-1.99c-1.22,1.52-2.67,3.46-4.15,5.73-0.82,1.24-2.9,4.67-4.14,6.71a20.344,20.344,0,0,0-6.1-1.66,23.934,23.934,0,0,0-2.88-.16c-0.6,0-1.19.02-1.74,0.05C1068.69,2188.59,1072.65,2184.66,1077.31,2182.81Zm55.31,35.33a1.955,1.955,0,0,0-2.09.36,64.653,64.653,0,0,1-8.91,6.66c-1.76,1.11-8.26,4.88-8.33,4.92a1.914,1.914,0,0,0-.9,1.23,1.863,1.863,0,0,0,.31,1.48,14.1,14.1,0,0,1,2.03,6.03,24.526,24.526,0,0,1-.48,7.85,1.881,1.881,0,0,0,.75,1.98,1.92,1.92,0,0,0,2.15.06c0.41-.25,10.29-6.43,13.93-15.25a41.5,41.5,0,0,0,2.7-13.57A1.9,1.9,0,0,0,1132.62,2218.14Zm-5.11,13.9c-1.88,4.57-5.9,8.46-8.85,10.87a25.9,25.9,0,0,0-.11-4.53,19.7,19.7,0,0,0-1.7-5.99c2.08-1.21,5.58-3.25,6.84-4.05,2.32-1.46,4.3-2.88,5.84-4.07A32.742,32.742,0,0,1,1127.51,2232.04Zm-16.52-34.92h-1.92v1.89h-1.93v1.88h1.93v1.89h1.92v-1.89h1.93v-1.88h-1.93v-1.89Zm42.12,29.14-2.71,2.67-2.72-2.67-1.36,1.34,2.72,2.66-2.72,2.66,1.36,1.33,2.72-2.66,2.71,2.66,1.36-1.33-2.71-2.66,2.71-2.66Zm-62.37-62.07h1.53v1.5h1.92v-1.5h1.53v-1.89h-1.53v-1.5h-1.92v1.5h-1.53v1.89Zm-18.45.33a5.421,5.421,0,1,0-5.53-5.42A5.481,5.481,0,0,0,1072.29,2164.52Zm0-8.96a3.541,3.541,0,1,1-3.61,3.54A3.579,3.579,0,0,1,1072.29,2155.56Zm62.56,82.14a3.546,3.546,0,1,0,3.61,3.54A3.583,3.583,0,0,0,1134.85,2237.7Zm0,5.2a1.66,1.66,0,1,1,1.68-1.66A1.678,1.678,0,0,1,1134.85,2242.9Z" transform="translate(-1060.03 -2150.97)"/>
</svg>
